<svg width="1260" height="891" version="1.1" xmlns="http://www.w3.org/2000/svg" desc="Created with imagetracer.js version 1.2.6" ><path fill="rgb(0,0,0)" stroke="rgb(0,0,0)" stroke-width="1" opacity="0" d="M 0 0 L 1260 0 L 1260 891 L 0 891 L 0 0 Z M 252 265 L 251 266 L 235 266 L 234 267 L 214 269 L 185 277 L 158 291 L 150 293 L 134 300 Q 119 308 108 319 Q 88 337 82 369 L 82 395 L 83 396 L 84 408 Q 89 427 101 441 Q 115 455 135 464 L 160 473 L 185 479 L 200 481 L 202 475 L 217 479 L 215 483 L 217 484 L 222 484 L 244 489 Q 257 492 267 499 Q 274 504 276 515 Q 277 524 274 529 L 232 529 L 224 532 L 220 532 L 210 524 L 191 517 L 161 501 Q 149 499 145 504 Q 135 512 130 523 L 127 522 L 115 513 L 82 558 L 72 574 Q 102 598 147 608 L 152 599 L 165 604 L 162 610 L 169 612 L 189 614 L 190 615 L 200 615 L 201 616 L 236 616 L 237 617 L 283 617 L 284 616 L 293 616 L 294 615 L 301 615 L 317 612 L 352 600 L 374 586 L 394 564 Q 400 570 410 573 L 415 574 L 430 574 L 437 576 L 453 575 L 463 571 L 476 571 L 480 573 Q 490 575 496 571 L 498 569 L 500 563 L 501 536 Q 503 548 510 556 Q 517 565 529 570 L 538 573 L 558 574 L 559 575 L 579 575 L 584 574 L 601 566 Q 611 559 616 547 L 616 571 L 635 571 L 639 573 Q 649 575 655 571 L 659 565 L 660 535 L 686 570 L 688 571 L 706 571 L 710 573 L 726 573 L 729 571 L 748 571 L 752 573 L 834 573 L 837 572 Q 842 569 843 562 L 843 556 L 841 550 Q 838 545 833 544 L 776 544 L 773 542 L 773 422 L 771 416 Q 768 411 763 410 Q 751 409 746 413 L 743 419 L 742 420 L 728 420 L 728 452 L 722 448 Q 710 447 703 449 L 692 458 L 685 458 L 660 484 L 659 419 L 657 415 L 655 412 L 649 410 Q 639 409 635 412 L 630 418 L 630 420 L 616 420 L 616 475 L 611 467 Q 600 451 579 447 L 558 447 L 554 448 L 520 465 Q 506 475 501 494 L 498 477 L 490 462 Q 484 454 474 450 L 454 446 L 440 447 L 426 451 L 414 459 L 401 465 L 390 449 Q 377 433 360 423 L 334 411 L 296 400 Q 284 399 278 403 L 273 403 L 262 395 L 236 389 L 222 383 L 216 377 Q 215 368 219 365 L 232 357 L 254 353 L 269 354 L 268 356 L 283 360 L 310 374 L 319 362 L 342 371 Q 352 372 357 368 L 364 361 L 390 325 L 395 314 Q 396 304 392 300 Q 372 283 343 276 Q 334 276 329 279 L 324 278 L 312 270 L 304 268 L 289 267 L 288 266 L 252 265 Z M 903 344 L 900 348 L 901 352 L 904 353 L 909 352 L 910 347 Q 909 343 903 344 Z M 630 345 L 623 348 Q 614 353 612 365 Q 610 381 616 390 Q 620 397 630 399 Q 644 401 651 394 L 657 383 L 657 381 L 649 381 L 648 386 Q 646 391 640 392 Q 631 393 627 390 L 621 384 L 619 377 L 619 368 L 623 358 L 631 352 L 643 353 L 649 361 L 649 363 L 657 363 L 654 355 Q 648 343 630 345 Z M 471 346 L 471 398 L 495 398 L 503 395 Q 511 390 513 378 L 513 368 L 509 356 Q 505 348 496 346 L 471 346 Z M 919 349 L 919 359 L 913 359 L 913 365 L 919 365 L 919 392 L 921 396 L 927 399 L 935 399 L 935 392 Q 928 394 926 390 L 926 366 L 927 365 L 934 365 L 934 359 L 926 359 L 926 349 L 919 349 Z M 533 358 L 527 360 L 520 367 L 517 378 L 518 387 L 522 394 L 532 399 Q 541 400 547 397 L 552 391 L 552 388 L 546 388 L 539 393 L 531 392 L 525 386 Q 524 381 526 381 L 553 381 L 552 370 L 550 366 Q 546 357 533 358 Z M 675 358 L 669 361 Q 663 365 661 373 L 661 386 L 666 395 L 674 399 Q 683 400 689 397 Q 695 393 697 384 Q 699 370 693 365 Q 688 357 675 358 Z M 718 358 L 715 359 L 710 363 L 710 359 L 703 359 L 703 398 L 704 398 L 710 398 L 710 372 L 711 369 L 719 364 L 724 366 L 726 372 L 726 398 L 727 398 L 733 398 L 733 370 L 734 368 L 742 364 L 748 369 L 748 398 L 749 398 L 755 398 L 755 367 L 753 363 L 747 358 Q 737 357 734 361 L 732 364 Q 729 357 718 358 Z M 778 358 L 773 360 L 771 363 L 770 363 L 770 359 L 763 359 L 763 398 L 764 398 L 770 398 L 770 371 L 775 365 Q 783 363 785 369 L 785 398 L 786 398 L 793 398 L 793 370 L 794 368 L 801 364 L 805 365 L 808 370 L 808 398 L 809 398 L 815 398 L 815 368 L 812 362 L 806 358 Q 794 357 791 364 L 790 363 Q 787 357 778 358 Z M 877 358 L 874 359 L 869 363 L 869 359 L 862 359 L 862 398 L 863 398 L 869 398 L 869 372 L 872 366 L 879 364 L 883 365 L 887 372 L 887 398 L 888 398 L 894 398 L 894 370 L 892 364 Q 888 357 877 358 Z M 556 359 L 569 396 L 570 398 L 577 398 L 579 395 L 591 362 L 591 359 L 585 359 L 574 389 L 564 361 Q 562 357 556 359 Z M 823 359 L 823 390 L 825 394 L 833 399 L 843 398 L 847 395 L 847 398 L 854 398 L 854 360 L 854 359 L 847 359 L 847 386 L 846 388 L 841 392 L 834 391 L 830 387 L 830 360 L 830 359 L 823 359 Z M 901 359 L 901 398 L 902 398 L 909 398 L 909 360 L 909 359 L 901 359 Z M 937 359 L 951 398 L 949 404 L 945 407 L 940 407 L 940 413 L 951 412 L 956 406 L 973 360 L 965 359 L 955 388 L 945 362 L 945 359 L 937 359 Z M 1176 410 L 1168 413 L 1166 419 L 1165 420 L 1152 420 L 1152 449 L 1147 447 L 1127 447 L 1123 448 L 1113 452 L 1105 458 L 1089 466 Q 1077 475 1073 492 L 1071 489 L 1070 478 L 1064 465 Q 1057 455 1046 450 L 1035 447 L 1026 447 L 1025 446 L 1003 449 L 971 466 Q 961 472 959 485 Q 955 474 948 466 Q 940 455 927 450 L 916 447 L 907 447 L 906 446 L 905 447 L 895 447 L 882 451 L 853 468 Q 844 476 839 488 L 836 497 L 835 513 L 834 514 Q 836 519 835 528 L 839 543 L 850 560 Q 857 567 868 571 L 882 574 L 895 574 L 896 575 L 915 575 L 924 573 Q 935 569 943 562 Q 951 555 956 544 Q 957 554 961 560 Q 966 567 976 571 L 986 574 L 1001 574 L 1009 576 L 1025 575 L 1035 571 L 1048 571 L 1052 573 Q 1060 574 1066 572 Q 1071 569 1072 562 L 1073 537 L 1075 546 L 1083 559 Q 1090 566 1101 571 L 1114 574 L 1128 574 L 1129 575 Q 1147 577 1157 571 L 1172 571 L 1176 573 Q 1185 574 1191 571 L 1195 564 L 1195 420 L 1192 413 Q 1187 409 1176 410 Z " /><path fill="rgb(0,0,0)" stroke="rgb(0,0,0)" stroke-width="1" opacity="0" d="M 478 352 L 491.5 352 Q 498.4 353.6 502 358.5 Q 506.4 364.1 506 374.5 L 504 382.5 L 499.5 388 Q 491.9 393.7 478 392 L 478 352 Z " /><path fill="rgb(0,0,0)" stroke="rgb(0,0,0)" stroke-width="1" opacity="0" d="M 535.5 364 L 543 367.5 L 546 374.5 L 525 375 Q 524.8 368.5 529.5 366 L 535.5 364 Z " /><path fill="rgb(0,0,0)" stroke="rgb(0,0,0)" stroke-width="1" opacity="0" d="M 678.5 364 L 684.5 366 L 687 368.5 Q 691 372.9 690 382.5 Q 688.5 389 683.5 392 L 676.5 393 L 670 388.5 Q 666.6 383.4 668 373.5 L 674.5 365 L 678.5 364 Z " /><path fill="rgb(0,0,0)" stroke="rgb(0,0,0)" stroke-width="1" opacity="0" d="M 727.5 460 L 728 553.5 L 725 551.5 L 691 508.5 Q 688 506.5 689 500.5 L 724 465.5 L 727.5 460 Z " /><path fill="rgb(0,0,0)" stroke="rgb(0,0,0)" stroke-width="1" opacity="0" d="M 442.5 475 L 445.5 475 L 452 479.5 Q 456.8 485.5 457 495 L 444.5 495 L 443.5 496 L 431.5 497 Q 418.6 499.6 409.5 506 L 408 504.5 L 408 492.5 L 407 490 L 409.5 489 L 411.5 489 L 423.5 489 Q 432 485.5 436.5 478 L 442.5 475 Z " /><path fill="rgb(0,0,0)" stroke="rgb(0,0,0)" stroke-width="1" opacity="0" d="M 899.5 475 L 910 483.5 Q 921.7 497.3 919 525.5 Q 916.4 538.7 910 547 Q 891.8 548.5 885 537.5 Q 876.3 525.7 878 503.5 L 883 487.5 L 890.5 479 L 899.5 475 Z " /><path fill="rgb(0,0,0)" stroke="rgb(0,0,0)" stroke-width="1" opacity="0" d="M 1014.5 475 Q 1022.6 475.4 1025 481.5 Q 1029.1 486.3 1028 495 L 1008.5 496 L 992.5 500 L 980.5 508 L 969.5 512 L 962.5 518 L 963 516.5 L 962 497.5 L 960 488 L 995.5 489 Q 1004.7 485.2 1009.5 477 L 1014.5 475 Z " /><path fill="rgb(0,0,0)" stroke="rgb(0,0,0)" stroke-width="1" opacity="0" d="M 559.5 476 L 565.5 477 L 573 484.5 L 576.5 492 L 594.5 492 Q 599.2 495.8 609.5 494 L 615.5 490 L 616 530.5 L 614.5 530 L 610.5 528 L 597.5 528 L 590 532.5 L 588 537 L 576.5 537 L 576 538.5 L 571.5 547 Q 556.4 547.6 550 539.5 Q 539.6 527.9 541 504.5 L 545 489.5 L 553.5 479 L 559.5 476 Z " /><path fill="rgb(0,0,0)" stroke="rgb(0,0,0)" stroke-width="1" opacity="0" d="M 1130.5 476 L 1134.5 476 L 1142 481 Q 1148.2 488.1 1151 499.5 Q 1149.7 504.2 1152 505.5 L 1152 524.5 L 1149 536.5 L 1142.5 547 Q 1125.8 547.7 1120 537.5 L 1114 523.5 L 1113 503.5 L 1116 491.5 L 1122 481 L 1130.5 476 Z " /><path fill="rgb(0,0,0)" stroke="rgb(0,0,0)" stroke-width="1" opacity="0" d="M 453.5 522 L 457 522.5 L 457 533.5 Q 455.6 542.1 450.5 547 Q 434.4 549.6 429 541.5 L 428 532.5 L 433.5 526 L 443.5 523 L 452.5 523 L 453.5 522 Z " /><path fill="rgb(0,0,0)" stroke="rgb(0,0,0)" stroke-width="1" opacity="0" d="M 1025.5 522 L 1028 522.5 L 1028 535.5 Q 1026.5 543 1021.5 547 Q 1005.1 549.4 1000 540.5 L 999 534.5 L 1002.5 528 L 1010.5 524 L 1024.5 523 L 1025.5 522 Z " /><path fill="rgb(0,0,0)" stroke="rgb(0,0,0)" stroke-width="1" opacity="0.03529411764705882" d="M 251.5 265 L 287.5 266 L 288.5 267 L 303.5 268 L 311.5 270 L 323.5 278 L 328.5 279 Q 333.9 275.9 342.5 276 Q 372.4 282.6 392 299.5 Q 396.3 303.7 395 313.5 L 390 324.5 L 364 360.5 L 356.5 368 Q 351.7 372.2 341.5 371 L 319 362 L 326.5 351 L 339.5 357 L 347.5 357 L 356 350.5 L 378 319.5 L 381 309.5 L 377.5 304 L 356.5 293 L 347.5 290 L 338.5 290 L 333 294.5 L 328.5 302 L 309 295 L 310 288.5 L 306.5 283 L 298.5 280 L 280.5 279 L 279.5 278 L 241.5 278 L 240.5 279 L 223.5 280 L 211.5 283 L 197.5 283 L 196.5 284 L 181.5 285 L 160.5 290 L 160.5 289 Q 176.3 278.8 196.5 273 L 219.5 268 L 233.5 267 L 234.5 266 L 250.5 266 L 251.5 265 Z " /><path fill="rgb(0,0,0)" stroke="rgb(0,0,0)" stroke-width="1" opacity="0.03529411764705882" d="M 260.5 340 L 274 341.5 L 268.5 353 L 253.5 353 L 253 351.5 L 258.5 341 L 260.5 340 Z " /><path fill="rgb(0,0,0)" stroke="rgb(0,0,0)" stroke-width="1" opacity="0.03529411764705882" d="M 214.5 352 L 241.5 352 L 242.5 353 L 251 353.5 L 231.5 357 L 219 364.5 Q 214.7 367.7 216 376.5 L 221.5 383 L 235.5 389 L 261.5 395 L 272.5 403 L 277.5 403 Q 283.6 398.6 295.5 400 L 333.5 411 L 359.5 423 Q 377.3 433.2 390 448.5 L 400 465.5 L 395 469.5 L 392 475 Q 389 476.3 390 472.5 Q 382.6 455.9 369.5 445 Q 355.6 433.4 337.5 426 L 308.5 416 L 295.5 413 L 289.5 413 Q 283.4 414.4 281 419.5 L 278.5 423 L 258 418 Q 259.5 410.8 255.5 408 L 247.5 404 L 223.5 398 Q 212.3 394.3 206 385.5 Q 201.3 379.7 203 367.5 Q 206.5 357.5 214.5 352 Z " /><path fill="rgb(0,0,0)" stroke="rgb(0,0,0)" stroke-width="1" opacity="0.03529411764705882" d="M 639.5 410 L 652.5 411 L 657 414.5 L 659 418.5 L 659 484.5 L 654 488.5 L 654 421.5 L 649.5 416 L 644.5 415 L 639.5 416 L 636 418.5 L 635.5 420 L 630 420 Q 630.1 414.4 634.5 412 L 639.5 410 Z " /><path fill="rgb(0,0,0)" stroke="rgb(0,0,0)" stroke-width="1" opacity="0.03529411764705882" d="M 752.5 410 Q 766.5 408 771 415.5 L 773 421.5 L 773 541.5 L 775.5 544 L 832.5 544 Q 838.3 545.3 841 549.5 L 843 555.5 L 843 561.5 Q 841.9 568.9 836.5 572 L 833.5 573 L 751.5 573 L 748 571.5 L 818 571 L 818.5 568 L 829.5 568 L 836 564.5 Q 838.3 561.3 837 554.5 L 832.5 550 L 828.5 549 L 772.5 549 L 769 546.5 L 767 539.5 L 767 420.5 L 762.5 416 L 756.5 415 L 750.5 417 L 747.5 420 L 742.5 420 L 743 418.5 L 745.5 413 L 752.5 410 Z " /><path fill="rgb(0,0,0)" stroke="rgb(0,0,0)" stroke-width="1" opacity="0.03529411764705882" d="M 1175.5 410 Q 1186.9 408.8 1192 413 L 1195 419.5 L 1195 563.5 L 1190.5 571 Q 1185.4 574.4 1175.5 573 L 1171 570.5 L 1171.5 563 Q 1174 568.5 1182.5 568 L 1189 563.5 L 1190 560.5 L 1190 422.5 L 1186.5 417 L 1179.5 415 L 1172 418.5 Q 1172.5 421.5 1165.5 420 L 1166 418.5 L 1168 413 L 1175.5 410 Z " /><path fill="rgb(0,0,0)" stroke="rgb(0,0,0)" stroke-width="1" opacity="0.03529411764705882" d="M 449.5 446 L 462.5 447 L 473.5 450 Q 483.6 453.9 490 461.5 Q 501 473.5 500 497.5 L 498 504.5 L 498 525.5 L 500 532.5 L 500 562.5 L 498 568.5 L 495.5 571 Q 490.1 574.6 479.5 573 L 476 572 L 476.5 564 Q 479.1 568.9 487.5 568 L 493 564.5 L 495 559.5 L 495 490.5 L 492 475.5 Q 488.2 465.8 480.5 460 Q 467.5 449.5 441.5 452 L 432.5 454 L 429.5 456 L 418.5 457 L 414.5 459 L 416.5 456 L 434.5 448 L 448.5 447 L 449.5 446 Z " /><path fill="rgb(0,0,0)" stroke="rgb(0,0,0)" stroke-width="1" opacity="0.03529411764705882" d="M 905.5 446 L 906.5 447 L 915.5 447 L 926.5 450 Q 939.5 455.5 948 465.5 Q 963.6 482.9 963 516.5 L 956 529.5 L 955 542.5 L 955 544.5 Q 950.8 555.3 942.5 562 Q 934.6 569.1 923.5 573 L 914.5 575 L 895.5 575 L 891 573.5 L 924.5 567 Q 937.1 561.6 945 551.5 Q 960 534.5 957 499.5 L 951 479.5 Q 945.2 468.3 935.5 461 L 918.5 453 L 913.5 452 L 896.5 452 L 885.5 456 L 879.5 456 L 871.5 458 L 871.5 457 Q 879.3 450.8 890.5 448 L 904.5 447 L 905.5 446 Z " /><path fill="rgb(0,0,0)" stroke="rgb(0,0,0)" stroke-width="1" opacity="0.03529411764705882" d="M 1021.5 446 L 1034.5 447 L 1045.5 450 Q 1057.1 454.9 1064 464.5 L 1070 477.5 L 1072 495.5 L 1070 501.5 L 1070 527.5 L 1072 533.5 L 1072 561.5 Q 1070.9 568.9 1065.5 572 Q 1060.4 574.4 1051.5 573 L 1047 570.5 L 1047.5 563 Q 1050 568.5 1058.5 568 L 1065 564.5 L 1066 562.5 L 1066 484.5 L 1061 469.5 L 1052.5 460 Q 1039.5 449.5 1013.5 452 L 1000.5 456 L 987.5 458 L 988.5 456 L 1002.5 449 L 1011.5 447 L 1020.5 447 L 1021.5 446 Z " /><path fill="rgb(0,0,0)" stroke="rgb(0,0,0)" stroke-width="1" opacity="0.03529411764705882" d="M 557.5 447 L 578.5 447 L 589.5 450 Q 603 455.5 611 466.5 L 616 475.5 L 616 489.5 Q 611.8 496.3 598.5 494 L 595 493 L 593 484.5 L 594 484.5 Q 593.3 486.8 595.5 486 Q 598.1 489.9 605.5 489 L 612 484.5 Q 609.7 468.3 598.5 461 L 581.5 453 L 576.5 452 L 559.5 452 L 548.5 456 L 542.5 456 L 535.5 458 L 537.5 455 Q 546.1 449.6 557.5 447 Z " /><path fill="rgb(0,0,0)" stroke="rgb(0,0,0)" stroke-width="1" opacity="0.03529411764705882" d="M 1126.5 447 L 1146.5 447 L 1152 449.5 Q 1154.1 455.4 1149.5 454 L 1144.5 452 L 1129.5 452 L 1117.5 456 L 1112.5 456 L 1105.5 458 L 1107.5 455 Q 1115.3 449.3 1126.5 447 Z " /><path fill="rgb(0,0,0)" stroke="rgb(0,0,0)" stroke-width="1" opacity="0.03529411764705882" d="M 706.5 448 L 721.5 448 L 728 452.5 L 727 461.5 L 689 500.5 L 689 505.5 L 728 554.5 L 728 572 L 725.5 573 L 709.5 573 L 706 571.5 L 711 571 L 709 567.5 L 710.5 567 L 711.5 568 L 720.5 568 L 725 566 L 726 562.5 L 723 556.5 L 686 510.5 Q 682.1 507.9 683 500.5 L 720 461.5 L 721 456.5 Q 717.9 451.6 708.5 453 Q 702.3 453.8 699.5 458 L 692.5 458 L 697.5 452 L 706.5 448 Z " /><path fill="rgb(0,0,0)" stroke="rgb(0,0,0)" stroke-width="1" opacity="0.03529411764705882" d="M 207.5 463 L 216.5 466 L 221 466 L 221 469.5 L 216.5 478 L 202 474.5 L 207.5 463 Z " /><path fill="rgb(0,0,0)" stroke="rgb(0,0,0)" stroke-width="1" opacity="0.03529411764705882" d="M 1088.5 466 L 1087.5 468 L 1088.5 466 Z " /><path fill="rgb(0,0,0)" stroke="rgb(0,0,0)" stroke-width="1" opacity="0.03529411764705882" d="M 675.5 467 L 668.5 475 L 675.5 467 Z " /><path fill="rgb(0,0,0)" stroke="rgb(0,0,0)" stroke-width="1" opacity="0.03529411764705882" d="M 1149.5 471 L 1152 472 L 1151.5 475 Q 1147.9 473.9 1149.5 471 Z " /><path fill="rgb(0,0,0)" stroke="rgb(0,0,0)" stroke-width="1" opacity="0.03529411764705882" d="M 434.5 473 Q 440.9 472.1 444 474.5 L 436.5 478 Q 432 485.5 423.5 489 L 411.5 489 L 410.5 490 L 408.5 490 Q 406.3 489.3 407 491.5 L 408 492.5 L 408 504.5 L 409.5 506 Q 418.6 499.6 431.5 497 L 443.5 496 L 444.5 495 L 457 495 L 457 500 L 450.5 500 L 449.5 501 L 438.5 501 L 420.5 506 L 411.5 507 L 396 513 L 396 499.5 L 394 488 L 406.5 488 L 407 485.5 L 409.5 482 Q 412.4 485.6 420.5 484 L 429 478.5 L 431.5 475 L 434.5 473 Z " /><path fill="rgb(0,0,0)" stroke="rgb(0,0,0)" stroke-width="1" opacity="0.03529411764705882" d="M 553.5 473 L 562 475.5 Q 553.3 477.3 549 483.5 Q 543.9 489.4 542 498.5 L 541 516.5 L 544 529.5 L 551.5 541 Q 558.1 547.4 571 547.5 L 566.5 552 L 562.5 552 Q 551.3 549.3 545 541.5 Q 539.3 534.7 537 524.5 Q 538.3 519.8 536 518.5 L 536 501.5 Q 538.9 483.9 550.5 475 L 553.5 473 Z " /><path fill="rgb(0,0,0)" stroke="rgb(0,0,0)" stroke-width="1" opacity="0.03529411764705882" d="M 890.5 473 L 899 475.5 Q 889.1 477.1 885 484.5 L 879 497.5 L 878 518.5 L 883 534.5 L 890.5 543 Q 897.1 547.9 909 547.5 L 903.5 552 L 898.5 552 Q 885.9 549.1 880 539.5 Q 875 531.5 873 520.5 L 873 500.5 L 878 485.5 L 885.5 476 L 890.5 473 Z " /><path fill="rgb(0,0,0)" stroke="rgb(0,0,0)" stroke-width="1" opacity="0.03529411764705882" d="M 1006.5 473 Q 1012.6 471.9 1015 474.5 L 1009.5 477 Q 1004.7 485.2 995.5 489 L 980.5 489 L 978 488 L 981.5 482 Q 984.4 485.6 992.5 484 L 995.5 483 L 1006.5 473 Z " /><path fill="rgb(0,0,0)" stroke="rgb(0,0,0)" stroke-width="1" opacity="0.03529411764705882" d="M 1124.5 473 L 1133 475.5 L 1122 481 L 1114 497.5 L 1113 517.5 L 1117 532.5 L 1125.5 543 Q 1131.6 547.4 1142 547.5 Q 1139.9 551.9 1133.5 552 Q 1120.9 549.1 1115 539.5 L 1111 531.5 L 1108 519.5 L 1108 500.5 Q 1110.7 483.7 1121.5 475 L 1124.5 473 Z " /><path fill="rgb(0,0,0)" stroke="rgb(0,0,0)" stroke-width="1" opacity="0.03529411764705882" d="M 1016.5 495 L 1028 495 L 1028 500 L 1004.5 502 L 996.5 505 L 981.5 508 L 983.5 505 L 998.5 498 L 1008.5 496 L 1015.5 496 L 1016.5 495 Z " /><path fill="rgb(0,0,0)" stroke="rgb(0,0,0)" stroke-width="1" opacity="0.03529411764705882" d="M 150.5 501 Q 158.7 499.8 163.5 502 L 190.5 517 L 209.5 524 L 219.5 532 L 223.5 532 L 231.5 529 L 273.5 529 L 272 531.5 L 268.5 536 L 257.5 542 L 249.5 542 L 248.5 541 L 238.5 541 Q 231.5 542 228.5 547 L 213.5 547 L 212.5 546 L 205 546 Q 206.2 538.2 201.5 535 L 182.5 527 L 163.5 516 L 153.5 515 L 148 518 L 141 529 L 138.5 529 L 129 523.5 Q 135.2 512.2 144.5 504 L 150.5 501 Z " /><path fill="rgb(0,0,0)" stroke="rgb(0,0,0)" stroke-width="1" opacity="0.03529411764705882" d="M 454.5 519 Q 458.7 517.9 457 522 L 439.5 524 Q 432.1 525.1 429 530.5 L 428 539.5 L 432.5 545 L 437.5 547 L 450 547.5 L 443.5 553 L 441.5 553 L 429.5 549 L 424 543.5 L 422 533.5 Q 423.5 526.5 428.5 523 L 438.5 520 L 453.5 520 L 454.5 519 Z " /><path fill="rgb(0,0,0)" stroke="rgb(0,0,0)" stroke-width="1" opacity="0.03529411764705882" d="M 1026.5 519 Q 1029.5 518.2 1028 522 L 1024.5 523 L 1010.5 524 L 1001 529.5 L 999 536.5 L 1000 540.5 L 1004.5 545 L 1009.5 547 L 1022 547.5 L 1013.5 553 L 1004.5 551 L 997 545.5 L 994 539.5 L 994 532.5 Q 995.5 526 1000.5 523 L 1003.5 521 L 1025.5 520 L 1026.5 519 Z " /><path fill="rgb(0,0,0)" stroke="rgb(0,0,0)" stroke-width="1" opacity="0.03529411764705882" d="M 597.5 528 L 610.5 528 L 616 531.5 L 616 546.5 Q 610.8 558.8 600.5 566 L 583.5 574 L 578.5 575 L 558.5 575 L 556 573.5 L 587.5 567 Q 598.3 562.8 605 554.5 Q 611.5 549 612 537.5 L 611 535 Q 607.8 532 599.5 533 L 593.5 537 L 588 537 L 592.5 530 L 597.5 528 Z " /><path fill="rgb(0,0,0)" stroke="rgb(0,0,0)" stroke-width="1" opacity="0.03529411764705882" d="M 654.5 529 L 659 534.5 L 659 564.5 L 654.5 571 Q 649.1 574.6 638.5 573 L 635 572 L 635.5 563 L 637.5 566 Q 640.2 568.8 646.5 568 L 653 563.5 L 654 561.5 L 654.5 529 Z " /><path fill="rgb(0,0,0)" stroke="rgb(0,0,0)" stroke-width="1" opacity="0.03529411764705882" d="M 385.5 552 L 393 564.5 Q 385 577 373.5 586 L 351.5 600 L 316.5 612 L 300.5 615 L 293.5 615 L 292.5 616 L 283.5 616 L 282.5 617 L 236.5 617 L 236.5 616 L 260.5 614 Q 267 611 276.5 611 L 299.5 604 L 304.5 601 L 312.5 600 L 333.5 594 Q 359.5 585 376 566.5 L 385.5 552 Z " /><path fill="rgb(0,0,0)" stroke="rgb(0,0,0)" stroke-width="1" opacity="0.03529411764705882" d="M 1083.5 558 L 1084.5 560 L 1083.5 558 Z " /><path fill="rgb(0,0,0)" stroke="rgb(0,0,0)" stroke-width="1" opacity="0.03529411764705882" d="M 850.5 559 L 852.5 562 L 850.5 559 Z " /><path fill="rgb(0,0,0)" stroke="rgb(0,0,0)" stroke-width="1" opacity="0.03529411764705882" d="M 455.5 568 Q 458.5 567.2 457 571 L 461.5 571 L 461.5 572 L 452.5 575 L 436.5 576 L 430 574.5 L 441.5 570 Q 450.8 571.3 455.5 568 Z " /><path fill="rgb(0,0,0)" stroke="rgb(0,0,0)" stroke-width="1" opacity="0.03529411764705882" d="M 1027.5 568 L 1028 571 L 1034 571.5 L 1024.5 575 L 1008.5 576 L 1001 574.5 L 1013.5 570 Q 1022.8 571.3 1027.5 568 Z " /><path fill="rgb(0,0,0)" stroke="rgb(0,0,0)" stroke-width="1" opacity="0.03529411764705882" d="M 1149.5 568 Q 1153.7 566.9 1152 571 L 1155.5 571 L 1155.5 572 L 1145.5 575 L 1128.5 575 L 1125 573.5 L 1135.5 570 Q 1144.5 571 1149.5 568 Z " /><path fill="rgb(0,0,0)" stroke="rgb(0,0,0)" stroke-width="1" opacity="0.03529411764705882" d="M 156.5 587 L 169 592.5 L 164.5 603 L 151 599 L 156.5 587 Z " /><path fill="rgb(0,0,1)" stroke="rgb(0,0,1)" stroke-width="1" opacity="0.17647058823529413" d="M 241.5 278 L 279.5 278 L 280.5 279 L 291.5 279 L 302.5 281 L 308 284.5 L 310 291.5 L 308.5 295 L 295.5 291 L 273.5 341 L 260.5 340 L 257.5 342 L 258 340.5 L 279 288 L 255.5 284 L 246.5 284 L 245.5 283 L 212 282.5 L 231.5 279 L 240.5 279 L 241.5 278 Z " /><path fill="rgb(0,0,1)" stroke="rgb(0,0,1)" stroke-width="1" opacity="0.17647058823529413" d="M 338.5 290 L 347.5 290 L 356.5 293 L 373.5 301 L 379 305.5 L 381 312.5 Q 369 336.5 351.5 355 Q 347.8 358.3 339.5 357 L 326.5 351 L 325 351.5 L 348 320.5 L 351 314 L 328 302.5 L 335.5 292 L 338.5 290 Z " /><path fill="rgb(0,0,1)" stroke="rgb(0,0,1)" stroke-width="1" opacity="0.17647058823529413" d="M 206.5 352 L 214 352.5 L 204 364.5 Q 201.6 369.6 203 378.5 Q 205.8 388.3 213.5 393 L 232.5 401 L 250.5 405 L 257 409.5 L 258 418 L 243 415 L 221.5 468 L 221 466 L 208.5 464 L 207 462.5 L 227 413 L 205.5 409 L 181.5 402 L 169 393.5 Q 163.8 387.7 166 374.5 L 171.5 366 L 183.5 358 L 206.5 352 Z " /><path fill="rgb(0,0,1)" stroke="rgb(0,0,1)" stroke-width="1" opacity="0.17647058823529413" d="M 289.5 413 L 295.5 413 L 308.5 416 L 337.5 426 L 364.5 441 L 378 453.5 Q 386.8 462.7 391 476.5 L 388 481.5 L 387 486.5 Q 388.6 489.5 394 488 L 395 490.5 L 396 512.5 L 397 513.5 L 389 520.5 Q 382.1 528.6 384 545.5 L 386 551.5 Q 379.3 564.8 368.5 574 Q 344.7 594.7 306.5 601 L 306.5 600 L 320.5 593 L 336 581 L 349 563.5 L 356 547.5 L 360 528.5 L 360 503.5 L 359 502.5 L 358 490.5 L 353 476.5 Q 346.9 464.1 337.5 455 L 325.5 445 L 306.5 434 L 278 423.5 L 286.5 414 L 289.5 413 Z " /><path fill="rgb(0,0,1)" stroke="rgb(0,0,1)" stroke-width="1" opacity="0.17647058823529413" d="M 644.5 415 L 649.5 416 L 653 419.5 L 654 421.5 L 654 489.5 L 636.5 508 L 635 507.5 L 635 420.5 L 637.5 417 L 644.5 415 Z " /><path fill="rgb(0,0,1)" stroke="rgb(0,0,1)" stroke-width="1" opacity="0.17647058823529413" d="M 756.5 415 L 762.5 416 L 767 420.5 L 767 539.5 L 768 544.5 L 770.5 548 L 772.5 549 L 828.5 549 L 832.5 550 L 837 554.5 Q 838.7 563.2 834.5 566 Q 828.6 569.7 818 568 L 818 554.5 L 817.5 554 L 748 554 L 748 419.5 L 750.5 417 L 756.5 415 Z " /><path fill="rgb(0,0,1)" stroke="rgb(0,0,1)" stroke-width="1" opacity="0.17647058823529413" d="M 1179.5 415 Q 1186.1 415.4 1189 419.5 L 1190 422.5 L 1190 560.5 L 1185.5 567 L 1178.5 568 L 1171 562.5 L 1171 420.5 L 1173.5 417 L 1179.5 415 Z " /><path fill="rgb(0,0,1)" stroke="rgb(0,0,1)" stroke-width="1" opacity="0.17647058823529413" d="M 441.5 452 Q 474.8 448.8 487 466.5 L 492 475.5 L 495 490.5 L 495 559.5 L 490.5 567 L 482.5 568 L 476.5 564 L 475.5 571 L 475 487.5 Q 472.1 471.9 461.5 464 L 449.5 458 L 430 455.5 L 441.5 452 Z " /><path fill="rgb(0,0,1)" stroke="rgb(0,0,1)" stroke-width="1" opacity="0.17647058823529413" d="M 559.5 452 Q 593 450 606 468.5 Q 611.6 473.9 612 484.5 Q 609.4 489.9 600.5 489 L 594.5 486 L 593 486.5 L 594 484.5 L 589 475.5 L 580.5 466 L 565.5 458 L 549 455.5 L 559.5 452 Z " /><path fill="rgb(0,0,1)" stroke="rgb(0,0,1)" stroke-width="1" opacity="0.17647058823529413" d="M 896.5 452 L 913.5 452 L 924.5 455 Q 938 460.5 946 471.5 Q 953.2 480.8 956 494.5 L 957 499.5 L 957 522.5 Q 954.6 537.1 948 547.5 L 936.5 560 Q 926.5 569 908.5 570 L 909.5 568 Q 919.2 564.2 925 556.5 Q 932.4 547.9 936 535.5 L 938 525.5 L 938 505.5 L 936 494.5 L 929 478.5 L 917.5 466 Q 906 456.5 886 455.5 L 896.5 452 Z " /><path fill="rgb(0,0,1)" stroke="rgb(0,0,1)" stroke-width="1" opacity="0.17647058823529413" d="M 1013.5 452 Q 1045.6 448.9 1058 465.5 L 1063 473.5 L 1066 484.5 L 1066 562.5 L 1063.5 566 Q 1060.6 568.6 1054.5 568 L 1047 562.5 L 1047 490.5 L 1046 489.5 L 1046 487.5 Q 1044.4 474.1 1036.5 467 Q 1030.1 460.9 1020.5 458 L 1001 455.5 L 1013.5 452 Z " /><path fill="rgb(0,0,1)" stroke="rgb(0,0,1)" stroke-width="1" opacity="0.17647058823529413" d="M 1129.5 452 Q 1143.9 450.5 1152 454 L 1152 471.5 L 1150.5 472 L 1148 471.5 L 1139.5 462 L 1128.5 457 L 1118 455.5 L 1129.5 452 Z " /><path fill="rgb(0,0,1)" stroke="rgb(0,0,1)" stroke-width="1" opacity="0.17647058823529413" d="M 708.5 453 Q 717.9 451.6 721 456.5 L 720 461.5 L 684 498.5 L 683 505.5 L 723 556.5 L 726 563.5 L 725 566 Q 721.1 569.3 711.5 568 L 706 564.5 L 661 507.5 L 661 505.5 L 707 458.5 L 700 457.5 L 704.5 454 L 708.5 453 Z " /><path fill="rgb(0,0,1)" stroke="rgb(0,0,1)" stroke-width="1" opacity="0.17647058823529413" d="M 396.5 468 L 395.5 470 L 396.5 468 Z " /><path fill="rgb(0,0,1)" stroke="rgb(0,0,1)" stroke-width="1" opacity="0.17647058823529413" d="M 428.5 472 L 436 472.5 L 429 477.5 L 426.5 481 Q 422.3 485.3 412.5 484 L 409 481.5 L 419.5 474 L 428.5 472 Z " /><path fill="rgb(0,0,1)" stroke="rgb(0,0,1)" stroke-width="1" opacity="0.17647058823529413" d="M 1000.5 472 L 1007 472.5 L 995.5 483 L 984.5 484 L 981.5 482 L 980 482.5 L 988.5 475 L 1000.5 472 Z " /><path fill="rgb(0,0,1)" stroke="rgb(0,0,1)" stroke-width="1" opacity="0.17647058823529413" d="M 542.5 473 L 553 473.5 L 544 481.5 Q 533.8 493.8 536 518.5 L 540 533.5 L 549.5 546 Q 555.6 551.4 566 552.5 L 559.5 556 L 544.5 557 Q 531.6 554.4 525 545.5 Q 519 537.5 517 525.5 L 517 503.5 Q 519.8 486.3 531.5 478 L 542.5 473 Z " /><path fill="rgb(0,0,1)" stroke="rgb(0,0,1)" stroke-width="1" opacity="0.17647058823529413" d="M 879.5 473 L 890 473.5 L 883 478.5 L 877 487.5 L 873 500.5 L 873 520.5 Q 875 531.5 880 539.5 L 888.5 548 Q 894 552 903 552.5 Q 895.8 558.8 880.5 557 Q 867.1 554.4 861 544.5 L 854 527.5 L 853 509.5 L 857 492.5 L 865.5 480 L 879.5 473 Z " /><path fill="rgb(0,0,1)" stroke="rgb(0,0,1)" stroke-width="1" opacity="0.17647058823529413" d="M 1114.5 473 L 1124 473.5 L 1116 480.5 Q 1105.5 493.5 1108 519.5 L 1111 531.5 L 1115 539.5 L 1123.5 548 Q 1128.2 551.8 1136.5 552 L 1138 551.5 Q 1133.3 555.8 1125.5 557 L 1115.5 557 Q 1102 554.5 1096 544.5 L 1091 534.5 L 1089 526.5 L 1088 509.5 L 1091 494.5 Q 1094.3 484.8 1101.5 479 L 1114.5 473 Z " /><path fill="rgb(0,0,1)" stroke="rgb(0,0,1)" stroke-width="1" opacity="0.17647058823529413" d="M 568.5 479 L 569.5 481 L 568.5 479 Z " /><path fill="rgb(0,0,1)" stroke="rgb(0,0,1)" stroke-width="1" opacity="0.17647058823529413" d="M 450.5 500 L 457 500 L 457 504 L 425.5 505 L 425.5 504 L 438.5 501 L 449.5 501 L 450.5 500 Z " /><path fill="rgb(0,0,1)" stroke="rgb(0,0,1)" stroke-width="1" opacity="0.17647058823529413" d="M 1022.5 500 Q 1030.3 497.6 1028 504 L 997.5 505 L 997.5 504 L 1010.5 501 L 1021.5 501 L 1022.5 500 Z " /><path fill="rgb(0,0,1)" stroke="rgb(0,0,1)" stroke-width="1" opacity="0.17647058823529413" d="M 153.5 515 L 163.5 516 L 174.5 523 L 196.5 532 L 203 536.5 Q 206 539.8 205 546 L 191.5 545 L 190.5 544 L 169.5 593 L 167.5 591 L 156.5 587 L 155 587.5 L 174 542.5 L 172.5 541 L 153.5 536 L 140 529.5 L 148 518 L 153.5 515 Z " /><path fill="rgb(0,0,1)" stroke="rgb(0,0,1)" stroke-width="1" opacity="0.17647058823529413" d="M 646.5 518 L 655 528.5 L 654 529.5 L 654 561.5 L 649.5 567 L 641.5 568 L 636 564.5 L 635 562.5 L 635 528 L 636.5 528 L 646.5 518 Z " /><path fill="rgb(0,0,1)" stroke="rgb(0,0,1)" stroke-width="1" opacity="0.17647058823529413" d="M 424.5 521 L 432 521.5 L 425 526.5 L 422 533.5 L 422 537.5 Q 423.4 545.6 429.5 549 L 442 553.5 Q 434.2 559.2 418.5 557 L 411.5 555 L 405 549.5 Q 401.2 544.8 403 534.5 Q 404.4 528.4 409.5 526 L 424.5 521 Z " /><path fill="rgb(0,0,1)" stroke="rgb(0,0,1)" stroke-width="1" opacity="0.17647058823529413" d="M 995.5 521 L 1003 521.5 L 996 527.5 Q 993 531.5 994 539.5 L 999.5 548 L 1004.5 551 L 1012.5 552 L 1014 553.5 Q 1005.5 559 989.5 557 Q 980.3 555.3 976 548.5 L 975 546.5 L 975 542.5 L 974 535.5 L 979.5 527 L 984.5 524 L 995.5 521 Z " /><path fill="rgb(0,0,1)" stroke="rgb(0,0,1)" stroke-width="1" opacity="0.17647058823529413" d="M 599.5 533 Q 607.8 532 611 535 L 612 541.5 Q 608.3 553.3 599.5 560 Q 589.5 569 571.5 570 L 571.5 569 Q 580.4 565.4 586 558.5 Q 592.6 550.6 595 538.5 L 594 536.5 L 599.5 533 Z " /><path fill="rgb(0,0,1)" stroke="rgb(0,0,1)" stroke-width="1" opacity="0.17647058823529413" d="M 238.5 541 L 248.5 541 L 256 542.5 Q 245.1 547.1 229.5 547 L 231.5 544 L 238.5 541 Z " /><path fill="rgb(0,0,1)" stroke="rgb(0,0,1)" stroke-width="1" opacity="0.17647058823529413" d="M 210.5 546 L 213 546.5 L 210.5 547 L 210.5 546 Z " /><path fill="rgb(0,0,1)" stroke="rgb(0,0,1)" stroke-width="1" opacity="0.17647058823529413" d="M 570.5 548 L 568.5 551 L 570.5 548 Z " /><path fill="rgb(0,0,1)" stroke="rgb(0,0,1)" stroke-width="1" opacity="0.17647058823529413" d="M 1019.5 549 L 1018.5 551 L 1019.5 549 Z " /><path fill="rgb(0,0,1)" stroke="rgb(0,0,1)" stroke-width="1" opacity="0.17647058823529413" d="M 1151.5 554 L 1153 554.5 L 1153 570.5 L 1152 570.5 Q 1153.3 566.8 1149.5 568 L 1143.5 570 L 1137.5 570 L 1138.5 568 L 1148 559.5 L 1151.5 554 Z " /><path fill="rgb(0,0,1)" stroke="rgb(0,0,1)" stroke-width="1" opacity="0.17647058823529413" d="M 728.5 555 L 729 570.5 L 728 570.5 L 728.5 555 Z " /><path fill="rgb(0,0,1)" stroke="rgb(0,0,1)" stroke-width="1" opacity="0.17647058823529413" d="M 456.5 556 L 457 568 L 450.5 570 L 443.5 570 L 444.5 568 Q 451.4 566.4 454 560.5 L 456.5 556 Z " /><path fill="rgb(0,0,1)" stroke="rgb(0,0,1)" stroke-width="1" opacity="0.17647058823529413" d="M 1027.5 557 L 1028 567.5 Q 1023.8 571.3 1014.5 570 L 1014.5 569 L 1023 564 L 1027.5 557 Z " /><path fill="rgb(0,0,1)" stroke="rgb(0,0,1)" stroke-width="1" opacity="0.17647058823529413" d="M 392.5 562 L 394.5 565 L 392.5 562 Z " /><path fill="rgb(0,88,165)" stroke="rgb(0,88,165)" stroke-width="1" opacity="0.9686274509803922" d="M 198.5 283 L 245.5 283 L 246.5 284 L 255.5 284 L 279 288 L 253 354 L 241.5 352 L 206.5 352 L 183.5 358 L 170 367.5 Q 163.6 373.1 166 387.5 L 172.5 397 L 181.5 402 L 193.5 406 L 227 413 L 200 481 L 184.5 479 L 159.5 473 L 134.5 464 Q 114.7 455.3 101 440.5 Q 89.2 427.3 84 407.5 L 83 395.5 L 82 394.5 L 82 368.5 Q 88.2 337.2 107.5 319 Q 124.6 302.1 149.5 293 L 166.5 288 L 189.5 284 L 197.5 284 L 198.5 283 Z " /><path fill="rgb(0,88,165)" stroke="rgb(0,88,165)" stroke-width="1" opacity="0.9686274509803922" d="M 295.5 291 L 318.5 298 L 351 314 L 348 320.5 L 310.5 373 L 307.5 373 L 287.5 362 L 268 356 L 293 294.5 L 295.5 291 Z " /><path fill="rgb(0,88,165)" stroke="rgb(0,88,165)" stroke-width="1" opacity="0.9686274509803922" d="M 902.5 344 Q 908.8 342.8 910 346.5 L 909 352 L 903.5 353 L 901 352 L 900 347.5 L 902.5 344 Z " /><path fill="rgb(0,88,165)" stroke="rgb(0,88,165)" stroke-width="1" opacity="0.9686274509803922" d="M 629.5 345 Q 648.5 343 654 354.5 L 657 363 L 649 363 L 649 360.5 L 642.5 353 L 630.5 352 L 623 357.5 L 619 367.5 L 619 376.5 L 621 383.5 L 626.5 390 Q 630.9 393.1 639.5 392 Q 645.6 390.6 648 385.5 L 649 381 L 656.5 381 L 657 382.5 L 650.5 394 Q 644.3 400.8 629.5 399 Q 620.4 396.5 616 389.5 Q 609.9 381.1 612 364.5 Q 614.4 353.4 622.5 348 L 629.5 345 Z " /><path fill="rgb(0,88,165)" stroke="rgb(0,88,165)" stroke-width="1" opacity="0.9686274509803922" d="M 471 346 L 495.5 346 Q 504.5 348.4 509 355.5 L 513 367.5 L 513 377.5 Q 511 389.5 502.5 395 L 494.5 398 L 471 398 L 471 346 Z M 478 352 L 478 392 Q 492 394 500 388 L 504 383 L 506 375 Q 506 364 502 359 Q 498 354 492 352 L 478 352 Z " /><path fill="rgb(0,88,165)" stroke="rgb(0,88,165)" stroke-width="1" opacity="0.9686274509803922" d="M 919 349 L 926 349 L 926 359 L 934 359 L 934 365 L 926.5 365 L 926 365.5 L 926 389.5 Q 927.9 393.8 935 392 L 935 399 L 926.5 399 L 921 395.5 L 919 391.5 L 919 365 L 913 365 L 913 359 L 919 359 L 919 349 Z " /><path fill="rgb(0,88,165)" stroke="rgb(0,88,165)" stroke-width="1" opacity="0.9686274509803922" d="M 532.5 358 Q 545.9 357.1 550 365.5 L 552 369.5 L 553 381 L 525.5 381 Q 524.5 381 525 385.5 L 530.5 392 L 538.5 393 L 545.5 388 L 552 388 L 552 390.5 L 546.5 397 Q 541.1 400.1 531.5 399 L 522 393.5 L 518 386.5 L 517 377.5 L 520 366.5 L 526.5 360 L 532.5 358 Z M 536 364 L 530 366 Q 525 369 525 375 L 546 375 L 543 368 L 536 364 Z " /><path fill="rgb(0,88,165)" stroke="rgb(0,88,165)" stroke-width="1" opacity="0.9686274509803922" d="M 674.5 358 Q 688 357 693 364.5 Q 698.5 370.5 697 383.5 Q 695.3 392.8 688.5 397 Q 683.4 400.4 673.5 399 L 666 395 L 661 385.5 L 661 372.5 Q 662.9 364.8 668.5 361 L 674.5 358 Z M 679 364 L 675 365 L 668 374 Q 667 383 670 389 L 677 393 L 684 392 Q 688 389 690 383 Q 691 373 687 369 L 685 366 L 679 364 Z " /><path fill="rgb(0,88,165)" stroke="rgb(0,88,165)" stroke-width="1" opacity="0.9686274509803922" d="M 717.5 358 Q 728.5 357 731.5 364 L 733.5 361 Q 737.3 356.8 746.5 358 L 753 362.5 L 755 366.5 L 755 398 L 748.5 398 L 748 397.5 L 748 368.5 L 741.5 364 L 734 367.5 L 733 369.5 L 733 398 L 726.5 398 L 726 397.5 L 726 371.5 L 724 366 L 718.5 364 L 711 368.5 L 710 371.5 L 710 398 L 703.5 398 L 703 397.5 L 703 359 L 710 359 L 710 362.5 L 714.5 359 L 717.5 358 Z " /><path fill="rgb(0,88,165)" stroke="rgb(0,88,165)" stroke-width="1" opacity="0.9686274509803922" d="M 777.5 358 Q 787.2 356.8 790 362.5 L 790.5 364 Q 794.3 357.3 805.5 358 L 812 361.5 L 815 367.5 L 815 398 L 808.5 398 L 808 397.5 L 808 369.5 L 804.5 365 L 800.5 364 L 794 367.5 L 793 369.5 L 793 398 L 785.5 398 L 785 397.5 L 785 368.5 Q 783.3 363.3 774.5 365 L 770 370.5 L 770 398 L 763.5 398 L 763 397.5 L 763 359 L 770 359 L 770 362.5 L 771 362.5 L 772.5 360 L 777.5 358 Z " /><path fill="rgb(0,88,165)" stroke="rgb(0,88,165)" stroke-width="1" opacity="0.9686274509803922" d="M 876.5 358 Q 888 357 892 363.5 L 894 369.5 L 894 398 L 887.5 398 L 887 397.5 L 887 371.5 L 882.5 365 L 878.5 364 L 872 366 L 869 371.5 L 869 398 L 862.5 398 L 862 397.5 L 862 359 L 869 359 L 869 362.5 L 873.5 359 L 876.5 358 Z " /><path fill="rgb(0,88,165)" stroke="rgb(0,88,165)" stroke-width="1" opacity="0.9686274509803922" d="M 555.5 359 Q 562.3 357.3 564 360.5 L 573.5 389 L 584.5 359 L 591 359 L 591 361.5 L 579 394.5 L 576.5 398 L 569.5 398 L 569 395.5 L 555.5 359 Z " /><path fill="rgb(0,88,165)" stroke="rgb(0,88,165)" stroke-width="1" opacity="0.9686274509803922" d="M 823 359 L 829.5 359 L 830 359.5 L 830 386.5 L 833.5 391 L 840.5 392 L 846 387.5 L 847 385.5 L 847 359 L 853.5 359 L 854 359.5 L 854 398 L 847 398 L 847 394.5 L 842.5 398 L 832.5 399 L 825 393.5 L 823 389.5 L 823 359 Z " /><path fill="rgb(0,88,165)" stroke="rgb(0,88,165)" stroke-width="1" opacity="0.9686274509803922" d="M 901 359 L 908.5 359 L 909 359.5 L 909 398 L 901.5 398 L 901 397.5 L 901 359 Z " /><path fill="rgb(0,88,165)" stroke="rgb(0,88,165)" stroke-width="1" opacity="0.9686274509803922" d="M 937 359 L 945 359 L 945 361.5 L 954.5 388 L 965 359 L 973 359.5 L 956 405.5 L 950.5 412 L 940 413 L 940 407 L 944.5 407 L 949 403.5 L 951 397.5 L 937 359 Z " /><path fill="rgb(0,88,165)" stroke="rgb(0,88,165)" stroke-width="1" opacity="0.9686274509803922" d="M 243 415 L 277.5 423 L 306.5 434 L 325.5 445 L 340 457.5 Q 352.6 470.4 358 490.5 L 359 502.5 L 360 503.5 L 360 528.5 L 356 547.5 L 353 555.5 L 343 572.5 L 336 581 L 315.5 596 Q 301.2 604.2 283.5 609 L 259.5 614 L 242.5 615 L 241.5 616 L 200.5 616 L 199.5 615 L 189.5 615 L 188.5 614 L 181.5 614 L 163 611 L 163 607.5 L 190.5 544 L 198.5 546 L 209.5 546 L 210.5 547 L 236.5 547 L 258.5 542 Q 267.5 538.5 273 531.5 Q 277.7 525.6 276 513.5 Q 274 503.5 266.5 499 Q 256.7 492.3 243.5 489 L 227.5 485 L 216.5 484 L 215 482.5 L 243 415 Z " /><path fill="rgb(0,88,165)" stroke="rgb(0,88,165)" stroke-width="1" opacity="0.9686274509803922" d="M 616 420 L 634.5 420 L 635 420.5 L 635 507.5 L 636.5 508 L 680.5 462 Q 682.8 462.8 682 460.5 L 684.5 458 L 706.5 458 L 704 461.5 L 661 505.5 L 661 507.5 L 711 570.5 L 687 571 L 646.5 518 L 636.5 528 L 635 528 L 635 571 L 616 571 L 616 420 Z " /><path fill="rgb(0,88,165)" stroke="rgb(0,88,165)" stroke-width="1" opacity="0.9686274509803922" d="M 728 420 L 747.5 420 L 748 420.5 L 748 554 L 817.5 554 L 818 554.5 L 818 571 L 729.5 571 L 729 570.5 L 729 555.5 L 728 554.5 L 728 420 Z " /><path fill="rgb(0,88,165)" stroke="rgb(0,88,165)" stroke-width="1" opacity="0.9686274509803922" d="M 1152 420 L 1170.5 420 L 1171 420.5 L 1171 571 L 1153 571 L 1153 554.5 L 1151.5 554 L 1139.5 568 Q 1130.8 574.8 1114.5 574 L 1100.5 571 L 1085 560.5 Q 1076.2 550.8 1072 536.5 L 1070 527.5 L 1070 502.5 L 1075 484.5 Q 1079.3 474.8 1086.5 468 Q 1098 455.5 1122.5 456 L 1136.5 460 L 1148 470.5 L 1150 475 L 1152 474.5 L 1152 420 Z M 1115 473 L 1102 479 Q 1094 485 1091 495 L 1088 510 L 1089 527 L 1091 535 L 1096 545 Q 1102 554 1116 557 L 1126 557 L 1137 553 L 1146 543 L 1151 531 Q 1150 526 1152 525 L 1152 505 L 1149 493 L 1144 484 Q 1139 477 1131 474 L 1115 473 Z " /><path fill="rgb(0,88,165)" stroke="rgb(0,88,165)" stroke-width="1" opacity="0.9686274509803922" d="M 426.5 456 L 438.5 456 L 452.5 459 Q 462.2 462.8 468 470.5 Q 473.4 477.1 475 487.5 L 475 571 L 457 571 L 457 556.5 L 456 556.5 L 447.5 567 Q 436.4 575.9 414.5 574 Q 398.1 570.9 390 559.5 L 384 545.5 L 384 532.5 Q 386.4 519.9 395.5 514 L 404.5 509 L 422.5 505 L 457 504 L 456 486.5 L 449.5 477 L 441.5 473 L 428.5 472 L 419.5 474 L 409 481.5 L 405.5 488 L 388.5 488 L 387 486.5 Q 390.1 472.1 400.5 465 L 409.5 460 L 426.5 456 Z M 454 519 L 453 520 L 425 521 L 410 526 Q 404 528 403 535 Q 401 545 405 550 L 412 555 L 419 557 L 434 557 L 446 552 Q 455 546 457 534 L 457 520 L 454 519 Z " /><path fill="rgb(0,88,165)" stroke="rgb(0,88,165)" stroke-width="1" opacity="0.9686274509803922" d="M 543.5 456 L 554.5 456 L 565.5 458 Q 578.2 462.3 586 471.5 L 593 483.5 L 595 491.5 L 576 492 Q 574.1 484.1 568.5 479 L 556.5 473 L 542.5 473 Q 530.3 476.3 524 485.5 L 520 492.5 L 517 503.5 L 517 525.5 Q 519.7 542.3 530.5 551 L 539.5 556 L 554.5 557 Q 565 555 571 548.5 L 576 539.5 L 576 537 L 593.5 537 L 595 538.5 Q 591.8 554.3 581.5 563 Q 569.7 574.2 546.5 574 Q 544.7 571.3 538.5 573 L 526.5 569 Q 516.5 564 510 555.5 Q 501.8 545.7 499 530.5 Q 500.3 525.7 498 524.5 L 498 504.5 L 501 491.5 L 506 480.5 L 518.5 466 L 528.5 460 L 543.5 456 Z " /><path fill="rgb(0,88,165)" stroke="rgb(0,88,165)" stroke-width="1" opacity="0.9686274509803922" d="M 880.5 456 L 892.5 456 L 907.5 460 Q 918.8 465.2 926 474.5 L 936 494.5 L 938 505.5 L 938 525.5 L 936 535.5 L 930 549.5 L 918.5 563 L 907.5 570 L 901.5 572 L 883.5 574 L 880.5 573 L 870.5 572 L 861.5 568 L 845 553.5 L 837 536.5 L 835 526.5 L 835 515.5 L 834 514.5 L 835 513.5 L 835 502.5 L 839 487.5 L 848 472 L 851 470.5 Q 850.3 468.3 852.5 469 Q 857.4 462.9 865.5 460 L 880.5 456 Z M 880 473 L 866 480 L 857 493 L 853 510 L 854 528 L 861 545 Q 867 554 881 557 L 893 557 L 906 551 Q 913 546 916 537 L 919 526 L 919 516 L 920 515 L 919 514 L 919 505 L 917 497 L 911 485 Q 906 478 898 474 Q 890 472 880 473 Z " /><path fill="rgb(0,88,165)" stroke="rgb(0,88,165)" stroke-width="1" opacity="0.9686274509803922" d="M 998.5 456 Q 1025.8 454.7 1038 468.5 L 1044 478.5 L 1047 490.5 L 1047 571 L 1028 571 L 1028 557.5 L 1027 557.5 L 1023 564 Q 1016.5 569.6 1006.5 573 L 1001.5 574 L 985.5 574 Q 975.4 572.1 968.5 567 L 962 560.5 L 956 548.5 L 955 535.5 L 959 522.5 L 965.5 515 L 973.5 510 L 988.5 506 L 1028 504 L 1028 488.5 Q 1025.9 480.2 1019.5 476 L 1012.5 473 L 1000.5 472 L 988.5 475 L 980 482.5 L 978 488 L 959.5 488 Q 958.5 488 959 483.5 Q 961.8 471.8 970.5 466 L 980.5 460 L 998.5 456 Z M 1025 519 L 1024 520 L 996 521 L 985 524 L 980 527 L 974 536 Q 973 544 976 549 Q 980 555 990 557 L 1005 557 L 1019 551 Q 1026 546 1028 536 L 1028 520 L 1025 519 Z " /><path fill="rgb(0,88,165)" stroke="rgb(0,88,165)" stroke-width="1" opacity="0.9686274509803922" d="M 114.5 513 Q 129.1 525.9 148.5 534 L 165.5 540 L 172.5 541 L 174 542.5 L 149 604.5 L 146.5 608 Q 101.9 598.1 72 573.5 L 82 557.5 L 114.5 513 Z " /></svg>